<svg width="42" height="42" viewBox="0 0 42 42" fill="none" xmlns="http://www.w3.org/2000/svg">
<g clip-path="url(#clip0_835_230)">
<path d="M0 0V34.5484H16.9355V37.9355C16.9355 40.1771 18.7584 42 21 42C23.2416 42 25.0645 40.1771 25.0645 37.9355V34.5484H42V0H0ZM23.7097 37.9355C23.7097 39.4299 22.4944 40.6452 21 40.6452C19.5056 40.6452 18.2903 39.4299 18.2903 37.9355V35.9032H23.7097V37.9355ZM23.7097 34.5484H18.2903V24.3871H23.7097V34.5484ZM23.8763 23.0323H18.1237L17.0107 19.1364L20.3226 15.351V17.7375C19.5361 18.018 18.9677 18.7632 18.9677 19.6452C18.9677 20.7656 19.8795 21.6774 21 21.6774C22.1205 21.6774 23.0323 20.7656 23.0323 19.6452C23.0323 18.7632 22.4639 18.018 21.6774 17.7375V15.351L24.9893 19.1364L23.8763 23.0323ZM21 18.9677C21.3739 18.9677 21.6774 19.2712 21.6774 19.6452C21.6774 20.0191 21.3739 20.3226 21 20.3226C20.6261 20.3226 20.3226 20.0191 20.3226 19.6452C20.3226 19.2712 20.6261 18.9677 21 18.9677ZM21.9416 13.5965C28.0005 14.0632 32.8216 18.9711 33.159 25.0652H31.8387V29.1297H35.9032V25.0652H34.5138C34.2612 19.9879 31.2101 15.6477 26.8665 13.5491H31.8387V14.9039H35.9032V10.8394H31.8387V12.1942H10.1613V10.8394H6.09677V14.9039H10.1613V13.5491H15.1335C10.7899 15.6477 7.73884 19.9879 7.48616 25.0652H6.09677V29.1297H10.1613V25.0652H8.841C9.17835 18.9711 13.9989 14.0632 20.0584 13.5965L15.5055 18.7991L16.9355 23.8038V30.4839H4.06452V9.48387H37.9355V30.4839H25.0645V23.8038L26.4945 18.7991L21.9416 13.5965ZM33.1935 27.7742V26.4194H34.5484V27.7742H33.1935ZM33.1935 13.5484V12.1935H34.5484V13.5484H33.1935ZM8.80645 12.1935V13.5484H7.45161V12.1935H8.80645ZM8.80645 26.4194V27.7742H7.45161V26.4194H8.80645ZM40.6452 33.1935H25.0645V31.8387H39.2903V8.12903H2.70968V31.8387H16.9355V33.1935H1.35484V6.77419H40.6452V33.1935ZM40.6452 5.41935H1.35484V1.35484H40.6452V5.41935Z" fill="url(#paint0_linear_835_230)" stroke="url(#paint1_linear_835_230)" stroke-width="0.25"/>
<path d="M4.06456 2.70972H2.70972V4.06456H4.06456V2.70972Z" fill="#FFDC6F"/>
<path d="M6.77415 2.70972H5.41931V4.06456H6.77415V2.70972Z" fill="#FFDC6F"/>
<path d="M9.48387 2.70972H8.12903V4.06456H9.48387V2.70972Z" fill="#FFDC6F"/>
<path d="M27.7742 35.9032H26.4193V37.258H27.7742V35.9032Z" fill="#FFBC5E"/>
<path d="M30.4839 35.9032H29.129V37.258H30.4839V35.9032Z" fill="#FFBC5E"/>
<path d="M33.1936 35.9032H31.8387V37.258H33.1936V35.9032Z" fill="#FFBC5E"/>
<path d="M10.1612 35.9032H8.8064V37.258H10.1612V35.9032Z" fill="#FFBC5E"/>
<path d="M12.871 35.9032H11.5161V37.258H12.871V35.9032Z" fill="#FFBC5E"/>
<path d="M15.5807 35.9032H14.2258V37.258H15.5807V35.9032Z" fill="#FFBC5E"/>
</g>
<defs>
<linearGradient id="paint0_linear_835_230" x1="2.38" y1="6.83165e-07" x2="38.64" y2="40.04" gradientUnits="userSpaceOnUse">
<stop offset="0.259336" stop-color="#FFDB6E"/>
<stop offset="1" stop-color="#FFBC5E"/>
</linearGradient>
<linearGradient id="paint1_linear_835_230" x1="2.38" y1="6.83165e-07" x2="38.64" y2="40.04" gradientUnits="userSpaceOnUse">
<stop offset="0.259336" stop-color="#FFDB6E"/>
<stop offset="1" stop-color="#FFBC5E"/>
</linearGradient>
<clipPath id="clip0_835_230">
<rect width="42" height="42" fill="white"/>
</clipPath>
</defs>
</svg>
